<svg xmlns="http://www.w3.org/2000/svg" version="1.1" xmlns:xlink="http://www.w3.org/1999/xlink" xmlns:svgjs="http://svgjs.com/svgjs" width="1440" height="560" preserveAspectRatio="none" viewBox="0 0 1440 560"><g mask="url(&quot;#SvgjsMask1014&quot;)" fill="none"><rect width="1440" height="560" x="0" y="0" fill="url(#SvgjsLinearGradient1015)"></rect><path d="M1440 0L975.13 0L1440 73.72z" fill="rgba(255, 255, 255, .1)"></path><path d="M975.13 0L1440 73.72L1440 228.26L816.76 0z" fill="rgba(255, 255, 255, .075)"></path><path d="M816.76 0L1440 228.26L1440 403.13L581.86 0z" fill="rgba(255, 255, 255, .05)"></path><path d="M581.86 0L1440 403.13L1440 512.75L363.96000000000004 0z" fill="rgba(255, 255, 255, .025)"></path><path d="M0 560L392.11 560L0 308.31z" fill="rgba(0, 0, 0, .1)"></path><path d="M0 308.31L392.11 560L793.33 560L0 199.12z" fill="rgba(0, 0, 0, .075)"></path><path d="M0 199.12L793.33 560L895.45 560L0 108.71000000000001z" fill="rgba(0, 0, 0, .05)"></path><path d="M0 108.71000000000004L895.45 560L1000.2 560L0 105.63000000000004z" fill="rgba(0, 0, 0, .025)"></path></g><defs><mask id="SvgjsMask1014"><rect width="1440" height="560" fill="#ffffff"></rect></mask><linearGradient x1="15.28%" y1="-39.29%" x2="84.72%" y2="139.29%" gradientUnits="userSpaceOnUse" id="SvgjsLinearGradient1015"><stop stop-color="#0e2a47" offset="0"></stop><stop stop-color="rgba(119, 52, 213, 1)" offset="1"></stop></linearGradient></defs></svg>